<svg width="41" height="41" viewBox="0 0 41 41" fill="none" xmlns="http://www.w3.org/2000/svg">
<path d="M20.0018 2.10098C29.8851 2.09227 37.9255 10.1185 37.9342 20.0018C37.943 29.8852 29.9167 37.9256 20.0334 37.9343C10.1501 37.943 2.10964 29.9168 2.10093 20.0334C2.09222 10.1501 10.1185 2.10969 20.0018 2.10098ZM20.0312 35.4343C28.5312 35.4268 35.4417 28.504 35.4342 20.004C35.4268 11.5041 28.504 4.59348 20.004 4.60098C11.504 4.60847 4.59344 11.5312 4.60093 20.0312C4.60842 28.5312 11.5312 35.4418 20.0312 35.4343Z" fill="#1C1E1F" fill-opacity="0.33"/>
<path d="M17.9113 12.8862C18.228 12.8859 18.5448 13.0023 18.795 13.2521L24.6835 19.1302C25.1673 19.6131 25.168 20.4131 24.6851 20.8969L18.8069 26.7854C18.324 27.2691 17.524 27.2698 17.0403 26.7869C16.5565 26.304 16.5558 25.504 17.0387 25.0203L22.0343 20.0159L17.0299 15.0203C16.5461 14.5374 16.5454 13.7374 17.0283 13.2536C17.2614 13.0034 17.578 12.8865 17.9113 12.8862Z" fill="#1C1E1F" fill-opacity="0.33"/>
</svg>
