<svg width="40" height="40" viewBox="0 0 40 40" fill="none" xmlns="http://www.w3.org/2000/svg">
<path d="M19.9999 37.9166C10.1166 37.9166 2.08325 29.8833 2.08325 20C2.08325 10.1166 10.1166 2.08331 19.9999 2.08331C29.8833 2.08331 37.9166 10.1166 37.9166 20C37.9166 29.8833 29.8833 37.9166 19.9999 37.9166ZM19.9999 4.58331C11.4999 4.58331 4.58325 11.5 4.58325 20C4.58325 28.5 11.4999 35.4166 19.9999 35.4166C28.4999 35.4166 35.4166 28.5 35.4166 20C35.4166 11.5 28.4999 4.58331 19.9999 4.58331Z" fill="#1C1E1F"/>
<path d="M22.1001 27.1334C21.7834 27.1334 21.4668 27.0167 21.2168 26.7667L15.3334 20.8833C14.8501 20.4 14.8501 19.6 15.3334 19.1167L21.2168 13.2333C21.7001 12.75 22.5001 12.75 22.9834 13.2333C23.4668 13.7167 23.4668 14.5167 22.9834 15L17.9834 20L22.9834 25C23.4668 25.4834 23.4668 26.2833 22.9834 26.7667C22.7501 27.0167 22.4334 27.1334 22.1001 27.1334Z" fill="#1C1E1F"/>
</svg>
