<svg width="26" height="26" viewBox="0 0 26 26" fill="none" xmlns="http://www.w3.org/2000/svg">
<path d="M16.9939 14.2092C16.8783 14.1257 16.7935 13.9997 16.7682 13.8427L15.8321 8.04165L10.0311 8.97771C9.72746 9.02671 9.4356 8.81595 9.3866 8.51229C9.3376 8.20862 9.54836 7.91676 9.85202 7.86776L16.208 6.84216C16.5117 6.79316 16.8035 7.00392 16.8525 7.30758L17.8781 13.6636C17.9271 13.9672 17.7164 14.2591 17.4127 14.3081C17.2617 14.3378 17.1094 14.2926 16.9939 14.2092Z" fill="#FF693B"/>
<path d="M8.50394 18.1898C8.25465 18.0097 8.1972 17.6537 8.37722 17.4044L15.7669 7.17112C15.9469 6.92182 16.3029 6.86437 16.5522 7.0444C16.8015 7.22442 16.859 7.58044 16.6789 7.82973L9.28928 18.063C9.10926 18.3123 8.75324 18.3698 8.50394 18.1898Z" fill="#FF693B"/>
</svg>
