<svg width="40" height="40" viewBox="0 0 40 40" fill="none" xmlns="http://www.w3.org/2000/svg">
<path d="M20.0001 2.08332C29.8834 2.08332 37.9167 10.1167 37.9167 20C37.9167 29.8833 29.8834 37.9167 20.0001 37.9167C10.1167 37.9167 2.08342 29.8833 2.08342 20C2.08342 10.1167 10.1167 2.08332 20.0001 2.08332ZM20.0001 35.4167C28.5001 35.4167 35.4167 28.5 35.4167 20C35.4167 11.5 28.5001 4.58332 20.0001 4.58332C11.5001 4.58332 4.58342 11.5 4.58342 20C4.58342 28.5 11.5001 35.4167 20.0001 35.4167Z" fill="#1C1E1F"/>
<path d="M17.8999 12.8667C18.2166 12.8667 18.5332 12.9833 18.7832 13.2333L24.6666 19.1167C25.1499 19.6 25.1499 20.4 24.6666 20.8833L18.7832 26.7667C18.2999 27.25 17.4999 27.25 17.0166 26.7667C16.5332 26.2833 16.5332 25.4833 17.0166 25L22.0166 20L17.0166 15C16.5332 14.5167 16.5332 13.7167 17.0166 13.2333C17.2499 12.9833 17.5666 12.8667 17.8999 12.8667Z" fill="#1C1E1F"/>
</svg>
