<svg width="18" height="18" viewBox="0 0 18 18" fill="none" xmlns="http://www.w3.org/2000/svg">
<path d="M6 4.3125C5.6925 4.3125 5.4375 4.0575 5.4375 3.75V1.5C5.4375 1.1925 5.6925 0.9375 6 0.9375C6.3075 0.9375 6.5625 1.1925 6.5625 1.5V3.75C6.5625 4.0575 6.3075 4.3125 6 4.3125Z" fill="#FF693B"/>
<path d="M12 4.3125C11.6925 4.3125 11.4375 4.0575 11.4375 3.75V1.5C11.4375 1.1925 11.6925 0.9375 12 0.9375C12.3075 0.9375 12.5625 1.1925 12.5625 1.5V3.75C12.5625 4.0575 12.3075 4.3125 12 4.3125Z" fill="#FF693B"/>
<path d="M6.375 10.8749C6.2775 10.8749 6.18 10.8524 6.09 10.8149C5.9925 10.7774 5.91751 10.7249 5.84251 10.6574C5.70751 10.5149 5.625 10.3199 5.625 10.1249C5.625 9.92992 5.70751 9.73493 5.84251 9.59243C5.91751 9.52493 6 9.47241 6.09 9.43491C6.27 9.35991 6.48 9.35991 6.66 9.43491C6.75 9.47241 6.83249 9.52493 6.90749 9.59243C6.93749 9.62993 6.97499 9.66742 6.99749 9.70492C7.02749 9.74992 7.05001 9.79492 7.06501 9.83992C7.08751 9.88492 7.10251 9.92991 7.11001 9.97491C7.11751 10.0274 7.125 10.0799 7.125 10.1249C7.125 10.3199 7.04249 10.5149 6.90749 10.6574C6.83249 10.7249 6.75 10.7774 6.66 10.8149C6.57 10.8524 6.4725 10.8749 6.375 10.8749Z" fill="#FF693B"/>
<path d="M9 10.8749C8.9025 10.8749 8.805 10.8524 8.715 10.8149C8.6175 10.7774 8.54251 10.7249 8.46751 10.6574C8.33251 10.5149 8.25 10.3199 8.25 10.1249C8.25 10.0799 8.25749 10.0274 8.26499 9.97489C8.27249 9.92989 8.28749 9.88489 8.30999 9.83989C8.32499 9.79489 8.34751 9.7499 8.37751 9.7049C8.40751 9.6674 8.43751 9.6299 8.46751 9.5924C8.74501 9.3149 9.24749 9.3149 9.53249 9.5924C9.56249 9.6299 9.59249 9.6674 9.62249 9.7049C9.65249 9.7499 9.67501 9.79489 9.69001 9.83989C9.71251 9.88489 9.72751 9.92989 9.73501 9.97489C9.74251 10.0274 9.75 10.0799 9.75 10.1249C9.75 10.3199 9.66749 10.5149 9.53249 10.6574C9.38999 10.7924 9.2025 10.8749 9 10.8749Z" fill="#FF693B"/>
<path d="M6.375 13.4999C6.2775 13.4999 6.18 13.4774 6.09 13.4399C6 13.4024 5.91751 13.3499 5.84251 13.2824C5.70751 13.1399 5.625 12.9449 5.625 12.7499C5.625 12.7049 5.63249 12.6524 5.63999 12.6074C5.64749 12.5549 5.66249 12.5099 5.68499 12.4649C5.69999 12.4199 5.72251 12.3749 5.75251 12.3299C5.77501 12.2924 5.81251 12.2549 5.84251 12.2174C5.91751 12.1499 6 12.0974 6.09 12.0599C6.27 11.9849 6.48 11.9849 6.66 12.0599C6.75 12.0974 6.83249 12.1499 6.90749 12.2174C6.93749 12.2549 6.97499 12.2924 6.99749 12.3299C7.02749 12.3749 7.05001 12.4199 7.06501 12.4649C7.08751 12.5099 7.10251 12.5549 7.11001 12.6074C7.11751 12.6524 7.125 12.7049 7.125 12.7499C7.125 12.9449 7.04249 13.1399 6.90749 13.2824C6.83249 13.3499 6.75 13.4024 6.66 13.4399C6.57 13.4774 6.4725 13.4999 6.375 13.4999Z" fill="#FF693B"/>
<path d="M15.375 7.37988H2.625C2.3175 7.37988 2.0625 7.12488 2.0625 6.81738C2.0625 6.50988 2.3175 6.25488 2.625 6.25488H15.375C15.6825 6.25488 15.9375 6.50988 15.9375 6.81738C15.9375 7.12488 15.6825 7.37988 15.375 7.37988Z" fill="#FF693B"/>
<path d="M11.865 17.085C11.58 17.085 11.31 16.98 11.115 16.785C10.8825 16.5525 10.7775 16.215 10.83 15.8625L10.9725 14.8499C11.01 14.5874 11.1675 14.2725 11.355 14.085L14.01 11.43C14.37 11.07 14.7225 10.8825 15.105 10.845C15.5775 10.8 16.035 10.995 16.47 11.43C16.9275 11.8875 17.5425 12.8174 16.47 13.8899L13.815 16.545C13.6275 16.7325 13.3125 16.89 13.05 16.9275L12.0375 17.07C11.9775 17.0775 11.925 17.085 11.865 17.085ZM15.2325 11.9625C15.225 11.9625 15.2175 11.9625 15.21 11.9625C15.105 11.97 14.9625 12.0674 14.805 12.2249L12.15 14.88C12.1275 14.9025 12.09 14.9775 12.09 15.0075L11.955 15.945L12.8925 15.8099C12.9225 15.8024 12.9975 15.765 13.02 15.7425L15.675 13.0875C16.005 12.7575 16.05 12.5925 15.675 12.2175C15.555 12.105 15.3825 11.9625 15.2325 11.9625Z" fill="#FF693B"/>
<path d="M15.6901 14.4374C15.6376 14.4374 15.5851 14.4299 15.5401 14.4149C14.5501 14.1374 13.7626 13.35 13.4851 12.36C13.4026 12.06 13.5751 11.7524 13.8751 11.6624C14.1751 11.5799 14.4826 11.7525 14.5726 12.0525C14.7451 12.6675 15.2326 13.1549 15.8476 13.3274C16.1476 13.4099 16.3201 13.725 16.2376 14.025C16.1626 14.2725 15.9376 14.4374 15.6901 14.4374Z" fill="#FF693B"/>
<path d="M9 17.0625H6C3.2625 17.0625 1.6875 15.4875 1.6875 12.75V6.375C1.6875 3.6375 3.2625 2.0625 6 2.0625H12C14.7375 2.0625 16.3125 3.6375 16.3125 6.375V9C16.3125 9.3075 16.0575 9.5625 15.75 9.5625C15.4425 9.5625 15.1875 9.3075 15.1875 9V6.375C15.1875 4.23 14.145 3.1875 12 3.1875H6C3.855 3.1875 2.8125 4.23 2.8125 6.375V12.75C2.8125 14.895 3.855 15.9375 6 15.9375H9C9.3075 15.9375 9.5625 16.1925 9.5625 16.5C9.5625 16.8075 9.3075 17.0625 9 17.0625Z" fill="#FF693B"/>
</svg>
