<svg width="28" height="28" viewBox="0 0 28 28" fill="none" xmlns="http://www.w3.org/2000/svg">
<path d="M6.49848 26.4833C3.76848 26.4833 1.45848 24.1733 1.45848 21.4433V14.2567C1.40015 10.85 2.66015 7.64166 5.01681 5.23833C7.37348 2.84666 10.5351 1.51666 13.9418 1.51666C20.8951 1.51666 26.5418 7.175 26.5418 14.1167V21.3033C26.5418 24.08 24.2785 26.3433 21.5018 26.3433C18.7718 26.3433 16.4618 24.0333 16.4618 21.3033V18.025C16.4618 16.3333 17.7918 15.0033 19.4835 15.0033C21.1751 15.0033 22.5051 16.3333 22.5051 18.025V21.56C22.5051 22.0383 22.1085 22.435 21.6301 22.435C21.1518 22.435 20.7551 22.0383 20.7551 21.56V18.025C20.7551 17.2317 20.1135 16.7533 19.4835 16.7533C18.6901 16.7533 18.2118 17.395 18.2118 18.025V21.3033C18.2118 23.0883 19.7168 24.5933 21.5018 24.5933C23.2868 24.5933 24.7918 23.0883 24.7918 21.3033V14.1167C24.7918 8.13166 19.9268 3.26666 13.9418 3.26666C11.0135 3.26666 8.29515 4.39833 6.26515 6.46333C4.23515 8.52833 3.15015 11.2933 3.20848 14.2333V21.4433C3.20848 23.2283 4.71348 24.7333 6.49848 24.7333C8.28348 24.7333 9.78848 23.2283 9.78848 21.4433V18.165C9.78848 17.3717 9.14681 16.8933 8.51681 16.8933C7.72348 16.8933 7.24515 17.535 7.24515 18.165V21.5717C7.24515 22.05 6.84848 22.4467 6.37015 22.4467C5.89181 22.4467 5.49515 22.05 5.49515 21.5717V18.165C5.49515 16.4733 6.82515 15.1433 8.51681 15.1433C10.2085 15.1433 11.5385 16.4733 11.5385 18.165V21.4433C11.5385 24.1733 9.22848 26.4833 6.49848 26.4833Z" fill="#2B4168"/>
</svg>
