<svg width="30" height="30" viewBox="0 0 30 30" fill="none" xmlns="http://www.w3.org/2000/svg">
<path d="M18.75 28.4375H11.25C4.4625 28.4375 1.5625 25.5375 1.5625 18.75V11.25C1.5625 4.4625 4.4625 1.5625 11.25 1.5625H18.75C25.5375 1.5625 28.4375 4.4625 28.4375 11.25V18.75C28.4375 25.5375 25.5375 28.4375 18.75 28.4375ZM11.25 3.4375C5.4875 3.4375 3.4375 5.4875 3.4375 11.25V18.75C3.4375 24.5125 5.4875 26.5625 11.25 26.5625H18.75C24.5125 26.5625 26.5625 24.5125 26.5625 18.75V11.25C26.5625 5.4875 24.5125 3.4375 18.75 3.4375H11.25Z" fill="#FF693B"/>
<path d="M15 20.3125C12.075 20.3125 9.6875 17.925 9.6875 15C9.6875 12.075 12.075 9.6875 15 9.6875C17.925 9.6875 20.3125 12.075 20.3125 15C20.3125 17.925 17.925 20.3125 15 20.3125ZM15 11.5625C13.1 11.5625 11.5625 13.1 11.5625 15C11.5625 16.9 13.1 18.4375 15 18.4375C16.9 18.4375 18.4375 16.9 18.4375 15C18.4375 13.1 16.9 11.5625 15 11.5625Z" fill="#FF693B"/>
<path d="M21.25 9.375C21.0875 9.375 20.925 9.3375 20.775 9.275C20.625 9.2125 20.4875 9.125 20.3625 9.0125C20.25 8.8875 20.15 8.75 20.0875 8.6C20.025 8.45 20 8.2875 20 8.125C20 7.9625 20.025 7.8 20.0875 7.65C20.1625 7.4875 20.25 7.3625 20.3625 7.2375C20.425 7.1875 20.4875 7.125 20.55 7.0875C20.625 7.0375 20.7 7 20.775 6.975C20.85 6.9375 20.925 6.9125 21.0125 6.9C21.4125 6.8125 21.8375 6.95 22.1375 7.2375C22.25 7.3625 22.3375 7.4875 22.4 7.65C22.4625 7.8 22.5 7.9625 22.5 8.125C22.5 8.2875 22.4625 8.45 22.4 8.6C22.3375 8.75 22.25 8.8875 22.1375 9.0125C22.0125 9.125 21.875 9.2125 21.725 9.275C21.575 9.3375 21.4125 9.375 21.25 9.375Z" fill="#FF693B"/>
</svg>
