<svg width="287" height="435" viewBox="0 0 287 435" fill="none" xmlns="http://www.w3.org/2000/svg">
<path d="M40.5516 247.815C40.5516 246.507 41.8597 247.815 41.8597 249.123C13.0812 298.832 48.4003 356.389 23.5461 407.406C30.0867 399.557 36.6273 390.4 43.1678 381.243C41.8597 379.935 44.4759 378.627 45.7841 377.319C47.0922 376.011 47.0922 374.703 48.4003 373.395C53.6328 319.762 31.3948 262.205 64.0977 213.804C64.0977 212.496 66.7139 213.804 65.4058 215.112C48.4003 263.513 64.0977 315.837 53.6328 365.546C61.4815 351.157 68.0221 336.767 74.5626 322.378C87.6438 253.048 60.1733 177.177 98.1087 113.079C98.1087 111.771 100.725 113.079 99.4168 114.388C77.1789 170.637 99.4168 233.426 87.6438 290.983C95.4925 271.361 103.341 251.74 111.19 232.118C86.3357 161.48 126.887 92.1495 147.817 25.4356C147.817 24.1275 149.125 25.4356 149.125 25.4356C141.277 62.0628 130.812 98.6901 125.579 135.317C121.655 162.788 120.347 188.95 117.73 216.421C121.655 207.264 126.887 198.107 130.812 188.95C120.347 115.696 188.369 65.9872 205.374 0.581385C205.374 -0.726731 206.682 0.581385 206.682 0.581385C204.066 69.9115 137.352 117.004 132.12 185.026C132.12 183.718 133.428 183.718 133.428 182.41C130.812 181.101 136.044 177.177 137.352 175.869C143.893 164.096 151.742 153.631 159.59 143.166C173.979 120.928 194.909 105.231 215.839 86.9171C243.31 62.0629 266.856 34.5924 286.477 0.581385C279.937 29.3599 256.391 63.371 234.153 88.2252C214.531 114.388 181.828 126.161 158.282 149.707C154.358 154.939 151.741 158.863 149.125 164.096C162.206 154.939 179.212 149.707 193.601 141.858C222.38 127.469 243.31 105.231 261.623 79.0684C247.234 132.701 187.061 157.555 139.968 178.485C133.428 190.258 126.887 203.339 121.655 216.421C133.428 204.648 151.742 200.723 166.131 194.183C193.601 183.718 218.455 166.712 235.461 141.858C236.769 140.55 238.077 141.858 236.769 143.166C224.996 164.096 207.991 185.026 187.061 198.107C168.747 211.188 142.585 215.112 119.039 228.194C119.039 229.502 117.73 230.81 117.73 232.118C117.73 233.426 117.73 233.426 116.422 234.734C102.033 268.745 90.26 302.756 74.5626 336.767C105.957 296.216 156.974 277.902 189.677 241.275C153.05 251.74 113.806 267.437 91.5681 300.14C91.5681 301.448 88.9519 300.14 90.26 298.832C111.19 258.28 151.742 226.886 198.834 230.81C204.066 224.269 207.991 217.729 210.607 211.188C210.607 209.88 211.915 211.188 211.915 211.188C209.299 217.729 206.682 224.269 202.758 230.81C211.915 232.118 221.072 233.426 230.228 236.042C231.537 236.042 231.537 238.659 230.228 238.659C219.764 237.35 207.991 238.659 197.526 239.967C189.677 251.74 179.212 263.513 168.747 273.978C147.817 340.692 121.655 368.162 51.0165 379.935C51.0165 381.243 49.7084 381.243 49.7084 382.551C61.4815 377.319 78.487 378.627 90.26 376.011C116.422 368.162 139.968 352.465 155.666 330.227C149.125 349.848 126.887 368.162 108.574 379.935C87.6438 391.708 62.7896 395.633 39.2435 398.249C28.7786 412.638 15.6974 424.411 1.30812 434.876C-1.26701e-06 434.876 0 434.876 0 433.568C2.61623 429.643 6.54058 427.027 9.15681 423.103C22.238 393.016 11.773 360.313 11.773 328.919C14.3893 300.14 27.4704 271.361 40.5516 247.815ZM117.73 343.308C141.277 326.302 155.666 301.448 167.439 276.594C139.968 304.064 100.725 317.146 71.9464 343.308C68.022 351.157 64.0977 360.313 58.8652 368.162C77.1789 359.005 99.4168 356.389 117.73 343.308Z" fill="#2B4168" fill-opacity="0.15"/>
</svg>
