<svg width="28" height="28" viewBox="0 0 28 28" fill="none" xmlns="http://www.w3.org/2000/svg">
<path d="M13.9999 19.5416C13.5333 19.5416 13.0666 19.5066 12.6233 19.425C10.1499 19.0633 7.89825 17.64 6.47492 15.5283C5.48325 14.035 4.95825 12.2966 4.95825 10.5C4.95825 5.51831 9.01825 1.45831 13.9999 1.45831C18.9816 1.45831 23.0416 5.51831 23.0416 10.5C23.0416 12.2966 22.5166 14.035 21.5249 15.5283C20.0899 17.6516 17.8383 19.0633 15.3416 19.4367C14.9333 19.5067 14.4666 19.5416 13.9999 19.5416ZM13.9999 3.20831C9.97492 3.20831 6.70825 6.47498 6.70825 10.5C6.70825 11.9583 7.12825 13.3583 7.92159 14.5483C9.07659 16.2516 10.8849 17.395 12.8916 17.6867C13.6383 17.815 14.3733 17.815 15.0616 17.6867C17.1033 17.395 18.9116 16.24 20.0666 14.5366C20.8599 13.3466 21.2799 11.9466 21.2799 10.4883C21.2916 6.47497 18.0249 3.20831 13.9999 3.20831Z" fill="#2B4168"/>
<path d="M7.54804 26.355C7.38471 26.355 7.23304 26.3317 7.06971 26.2967C6.31137 26.1217 5.72804 25.5383 5.55304 24.78L5.14471 23.065C5.12137 22.96 5.03971 22.8783 4.92304 22.8433L2.99804 22.3883C2.27471 22.2133 1.70304 21.6767 1.50471 20.965C1.30637 20.2533 1.50471 19.4833 2.02971 18.9583L6.57971 14.4083C6.76637 14.2217 7.02304 14.1283 7.27971 14.1517C7.53637 14.175 7.76971 14.315 7.92137 14.5366C9.07637 16.24 10.8847 17.395 12.903 17.6867C13.6497 17.815 14.3847 17.815 15.073 17.6867C17.1147 17.395 18.923 16.24 20.078 14.5366C20.218 14.315 20.463 14.175 20.7197 14.1517C20.9764 14.1283 21.233 14.2217 21.4197 14.4083L25.9697 18.9583C26.4947 19.4833 26.693 20.2533 26.4947 20.965C26.2964 21.6767 25.713 22.225 25.0014 22.3883L23.0764 22.8433C22.9714 22.8666 22.8897 22.9483 22.8547 23.065L22.4464 24.78C22.2714 25.5383 21.688 26.1217 20.9297 26.2967C20.1714 26.4833 19.3897 26.215 18.8997 25.62L13.9997 19.985L9.09971 25.6317C8.70304 26.0983 8.14304 26.355 7.54804 26.355ZM7.10471 16.3683L3.26637 20.2067C3.16137 20.3117 3.17304 20.4283 3.19637 20.4983C3.20804 20.5567 3.26637 20.6733 3.40637 20.6966L5.33137 21.1517C6.08971 21.3267 6.67304 21.91 6.84804 22.6683L7.25637 24.3833C7.29137 24.535 7.40804 24.5816 7.47804 24.605C7.54804 24.6166 7.66471 24.6283 7.76971 24.5117L12.238 19.3667C10.2547 18.9817 8.43471 17.92 7.10471 16.3683ZM15.7614 19.355L20.2297 24.4883C20.3347 24.6166 20.463 24.6166 20.533 24.5933C20.603 24.5816 20.708 24.5233 20.7547 24.3717L21.163 22.6567C21.338 21.8983 21.9214 21.315 22.6797 21.14L24.6047 20.685C24.7447 20.65 24.803 20.545 24.8147 20.4866C24.838 20.4283 24.8497 20.3 24.7447 20.195L20.9064 16.3566C19.5647 17.9083 17.7564 18.97 15.7614 19.355Z" fill="#2B4168"/>
<path d="M16.2052 15.0383C15.9019 15.0383 15.5402 14.9567 15.1086 14.7L14.0002 14.035L12.8919 14.6883C11.8769 15.295 11.2119 14.945 10.9669 14.77C10.7219 14.595 10.1969 14.07 10.4652 12.915L10.7452 11.7133L9.81191 10.85C9.29858 10.3366 9.11191 9.71832 9.28691 9.15832C9.46191 8.59832 9.97525 8.20164 10.6986 8.08497L11.9469 7.87498L12.5419 6.56832C12.8802 5.90332 13.4052 5.52997 14.0002 5.52997C14.5952 5.52997 15.1319 5.915 15.4586 6.58L16.1469 7.95665L17.3019 8.09665C18.0136 8.21332 18.5269 8.60996 18.7136 9.16996C18.8886 9.72996 18.7019 10.3483 18.1886 10.8616L17.2202 11.83L17.5236 12.915C17.7919 14.07 17.2669 14.595 17.0219 14.77C16.8936 14.875 16.6136 15.0383 16.2052 15.0383ZM11.2119 9.78833L12.0169 10.5933C12.3902 10.9666 12.5769 11.5967 12.4602 12.11L12.2386 13.0433L13.1719 12.495C13.6736 12.2033 14.3502 12.2033 14.8402 12.495L15.7736 13.0433L15.5636 12.11C15.4469 11.585 15.6219 10.9666 15.9952 10.5933L16.8002 9.78833L15.7852 9.6133C15.2952 9.53163 14.8052 9.16999 14.5836 8.72666L14.0002 7.58331L13.4169 8.74998C13.2069 9.18165 12.7169 9.55499 12.2269 9.63666L11.2119 9.78833Z" fill="#2B4168"/>
</svg>
