<svg width="274" height="291" viewBox="0 0 274 291" fill="none" xmlns="http://www.w3.org/2000/svg">
<path d="M264.48 77.174C262.872 107.722 260.46 138.27 253.225 168.014C258.049 129.427 252.421 91.6442 240.363 55.4689C239.559 53.8611 237.951 54.665 237.951 56.2728C245.99 90.0364 245.186 126.212 238.755 159.975C237.951 113.349 223.481 65.9195 196.149 28.1364C196.149 27.3325 195.345 28.1364 195.345 28.9403C206.599 57.8805 215.442 88.4286 219.462 118.977C210.619 84.4091 194.541 51.4494 172.836 23.313C172.032 21.7052 169.62 23.313 170.424 24.9208C191.325 63.5078 204.991 105.31 209.815 148.721C194.541 98.8792 167.208 52.2533 131.033 14.4702C129.425 12.8624 127.014 14.4702 127.817 16.8819C146.307 40.9987 159.973 69.1351 173.639 96.4675C154.346 62.7039 127.817 37.7832 96.4655 14.4702C94.8577 13.6663 94.0538 15.2741 94.8577 16.078C114.955 32.9598 131.033 54.665 144.699 77.174C122.994 56.2728 96.4655 40.1948 69.1331 28.9403C68.3292 28.9403 67.5253 29.7442 68.3292 30.5481C102.093 51.4494 129.425 83.6052 152.738 115.761C147.915 110.938 143.091 106.918 137.464 102.899C106.112 73.9585 69.1331 55.4689 29.7422 38.5871C29.7422 38.5871 28.9383 39.3909 29.7422 40.1948C75.5642 69.1351 122.19 100.487 155.15 144.701C116.563 112.545 68.3292 81.1935 20.0954 73.9585C53.859 94.8597 89.2305 115.761 120.582 139.878C89.2305 126.212 55.4668 116.565 20.8993 114.153C20.0954 114.153 19.2915 115.761 20.0954 116.565C60.2902 130.231 100.485 146.309 137.464 168.014C103.701 151.132 65.9175 139.074 28.1344 136.662C27.3305 136.662 26.5266 138.27 27.3305 138.27C68.3292 153.544 108.524 169.622 146.307 192.131C109.328 180.877 69.937 176.053 30.5461 180.877C29.7422 180.877 29.7422 182.484 30.5461 182.484C69.1331 190.523 107.72 197.758 144.699 209.817C115.759 209.013 86.8188 213.836 58.6824 217.052C57.0746 217.052 57.0746 219.464 58.6824 219.464C94.8577 219.464 131.033 222.679 167.208 228.306C138.268 234.738 104.504 244.384 79.5837 258.051C109.328 250.815 139.876 245.992 170.424 243.58C150.327 252.423 131.837 262.874 112.543 274.128C111.74 274.932 112.543 275.736 113.347 275.736C140.68 262.874 169.62 255.639 198.56 247.6C209.815 246.796 221.873 246.796 231.52 239.561C231.52 240.365 232.324 240.365 232.324 241.169C232.324 241.973 232.324 241.973 232.324 242.777C233.128 250.815 233.128 259.658 234.736 267.697C235.539 271.717 240.363 270.913 241.167 267.697C241.971 264.482 243.578 263.678 242.775 260.462C243.578 253.227 240.363 245.188 237.147 238.757C237.147 237.953 237.147 237.149 236.343 236.345C245.99 229.914 251.617 218.66 256.441 209.013C274.93 168.014 270.911 121.388 266.891 77.9779C266.891 76.3701 264.48 76.3701 264.48 77.174Z" fill="#FF693B" fill-opacity="0.11"/>
</svg>
