<svg width="40" height="40" viewBox="0 0 40 40" fill="none" xmlns="http://www.w3.org/2000/svg">
<path d="M20 37.9167C10.1167 37.9167 2.08337 29.8833 2.08337 20C2.08337 10.1167 10.1167 2.08334 20 2.08334C29.8834 2.08334 37.9167 10.1167 37.9167 20C37.9167 29.8833 29.8834 37.9167 20 37.9167ZM20 4.58334C11.5 4.58334 4.58337 11.5 4.58337 20C4.58337 28.5 11.5 35.4167 20 35.4167C28.5 35.4167 35.4167 28.5 35.4167 20C35.4167 11.5 28.5 4.58334 20 4.58334Z" fill="#1C1E1F"/>
<path d="M22.1 27.1333C21.7833 27.1333 21.4667 27.0167 21.2167 26.7667L15.3333 20.8833C14.85 20.4 14.85 19.6 15.3333 19.1167L21.2167 13.2333C21.7 12.75 22.5 12.75 22.9833 13.2333C23.4667 13.7167 23.4667 14.5167 22.9833 15L17.9833 20L22.9833 25C23.4667 25.4833 23.4667 26.2833 22.9833 26.7667C22.75 27.0167 22.4333 27.1333 22.1 27.1333Z" fill="#1C1E1F"/>
</svg>
