<svg width="20" height="20" viewBox="0 0 20 20" fill="none" xmlns="http://www.w3.org/2000/svg">
<path opacity="0.4" d="M4.78338 13.3333C4.87505 12.925 4.70838 12.3417 4.41671 12.05L2.39171 10.025C1.75838 9.39167 1.50838 8.71667 1.69171 8.13334C1.88338 7.55001 2.47505 7.15 3.35838 7L5.95838 6.56667C6.33338 6.50001 6.79171 6.16667 6.96671 5.825L8.40004 2.95001C8.81671 2.12501 9.38338 1.66667 10 1.66667C10.6167 1.66667 11.1834 2.12501 11.6 2.95001L13.0334 5.825C13.1417 6.04167 13.3667 6.25001 13.6084 6.39167L4.63338 15.3667C4.51671 15.4833 4.31671 15.375 4.35005 15.2083L4.78338 13.3333Z" fill="#EABE12"/>
<path d="M15.5833 12.05C15.2833 12.35 15.1166 12.925 15.2166 13.3333L15.7916 15.8417C16.0333 16.8833 15.8833 17.6667 15.3666 18.0417C15.1583 18.1917 14.9083 18.2667 14.6166 18.2667C14.1916 18.2667 13.6916 18.1083 13.1416 17.7833L10.6999 16.3333C10.3166 16.1083 9.68325 16.1083 9.29992 16.3333L6.85825 17.7833C5.93325 18.325 5.14159 18.4167 4.63325 18.0417C4.44159 17.9 4.29992 17.7083 4.20825 17.4583L14.3416 7.325C14.7249 6.94167 15.2666 6.76667 15.7916 6.85833L16.6333 7C17.5166 7.15 18.1083 7.55 18.2999 8.13333C18.4833 8.71667 18.2333 9.39167 17.5999 10.025L15.5833 12.05Z" fill="#EABE12"/>
</svg>
