<svg width="27" height="24" viewBox="0 0 27 24" fill="none" xmlns="http://www.w3.org/2000/svg">
<path d="M13.2309 16.2599L17.2834 20.8674C18.7834 22.5737 19.5347 23.4274 20.3209 23.2187C21.1059 23.0112 21.3759 21.8887 21.9147 19.6424L24.9022 7.18243C25.7334 3.72243 26.1484 1.99368 25.2259 1.13993C24.3034 0.286181 22.7047 0.921181 19.5072 2.18993L4.67468 8.08118C2.11718 9.09743 0.838426 9.60493 0.757176 10.4774C0.747608 10.5663 0.747608 10.656 0.757176 10.7449C0.835926 11.6187 2.11218 12.1299 4.66718 13.1537C5.82343 13.6174 6.40218 13.8499 6.81718 14.2937C6.86384 14.3437 6.90884 14.3953 6.95218 14.4487C7.33468 14.9237 7.49718 15.5487 7.82343 16.7937L8.43468 19.1274C8.75093 20.3399 8.90968 20.9474 9.32593 21.0299C9.74218 21.1124 10.1034 20.6099 10.8272 19.6037L13.2309 16.2599ZM13.2309 16.2599L12.8347 15.8474C12.3822 15.3749 12.1559 15.1399 12.1559 14.8474C12.1559 14.5549 12.3809 14.3187 12.8347 13.8474L17.3009 9.19243" stroke="#FF693B" stroke-width="1.5" stroke-linecap="round" stroke-linejoin="round"/>
</svg>
