<svg width="28" height="28" viewBox="0 0 28 28" fill="none" xmlns="http://www.w3.org/2000/svg">
<path d="M15.1665 17.2083H13.9998C13.5215 17.2083 13.1248 16.8116 13.1248 16.3333C13.1248 15.855 13.5215 15.4583 13.9998 15.4583H15.1665C15.9715 15.4583 16.6248 14.805 16.6248 14V3.20831H6.99982C5.62316 3.20831 4.36312 3.95496 3.68646 5.15663C3.45312 5.57663 2.91651 5.72834 2.49651 5.49501C2.07651 5.26167 1.92479 4.72498 2.15813 4.30498C3.13813 2.55498 4.99316 1.45831 6.99982 1.45831H17.4998C17.9782 1.45831 18.3748 1.85498 18.3748 2.33331V14C18.3748 15.7733 16.9398 17.2083 15.1665 17.2083Z" fill="#2B4168"/>
<path d="M22.1666 24.2083H20.9999C20.5216 24.2083 20.1249 23.8116 20.1249 23.3333C20.1249 22.5283 19.4716 21.875 18.6666 21.875C17.8616 21.875 17.2083 22.5283 17.2083 23.3333C17.2083 23.8116 16.8116 24.2083 16.3333 24.2083H11.6666C11.1883 24.2083 10.7916 23.8116 10.7916 23.3333C10.7916 22.5283 10.1383 21.875 9.33325 21.875C8.52825 21.875 7.87492 22.5283 7.87492 23.3333C7.87492 23.8116 7.47825 24.2083 6.99992 24.2083H5.83325C3.41825 24.2083 1.45825 22.2483 1.45825 19.8333C1.45825 19.355 1.85492 18.9583 2.33325 18.9583C2.81159 18.9583 3.20825 19.355 3.20825 19.8333C3.20825 21.28 4.38659 22.4583 5.83325 22.4583H6.24156C6.62656 21.1166 7.86325 20.125 9.33325 20.125C10.8033 20.125 12.0399 21.1166 12.4249 22.4583H15.5866C15.9716 21.1166 17.2083 20.125 18.6783 20.125C20.1483 20.125 21.3849 21.1166 21.7699 22.4583H22.1666C23.6133 22.4583 24.7916 21.28 24.7916 19.8333V17.2083H22.1666C21.0466 17.2083 20.1249 16.2866 20.1249 15.1666V11.6666C20.1249 10.5466 21.0349 9.62498 22.1666 9.62498L20.9182 7.44332C20.6616 6.98832 20.1716 6.70831 19.6466 6.70831H18.3749V14C18.3749 15.7733 16.9399 17.2083 15.1666 17.2083H13.9999C13.5216 17.2083 13.1249 16.8116 13.1249 16.3333C13.1249 15.855 13.5216 15.4583 13.9999 15.4583H15.1666C15.9716 15.4583 16.6249 14.805 16.6249 14V5.83331C16.6249 5.35498 17.0216 4.95831 17.4999 4.95831H19.6466C20.8016 4.95831 21.8632 5.57666 22.4349 6.58L24.4299 10.0683C24.5816 10.3367 24.5816 10.675 24.4299 10.9433C24.2783 11.2117 23.9866 11.375 23.6716 11.375H22.1666C22.0033 11.375 21.8749 11.5033 21.8749 11.6666V15.1666C21.8749 15.33 22.0033 15.4583 22.1666 15.4583H25.6666C26.1449 15.4583 26.5416 15.855 26.5416 16.3333V19.8333C26.5416 22.2483 24.5816 24.2083 22.1666 24.2083Z" fill="#2B4168"/>
<path d="M9.33333 26.5417C7.56 26.5417 6.125 25.1067 6.125 23.3333C6.125 21.56 7.56 20.125 9.33333 20.125C11.1067 20.125 12.5417 21.56 12.5417 23.3333C12.5417 25.1067 11.1067 26.5417 9.33333 26.5417ZM9.33333 21.875C8.52833 21.875 7.875 22.5283 7.875 23.3333C7.875 24.1383 8.52833 24.7917 9.33333 24.7917C10.1383 24.7917 10.7917 24.1383 10.7917 23.3333C10.7917 22.5283 10.1383 21.875 9.33333 21.875Z" fill="#2B4168"/>
<path d="M18.6666 26.5417C16.8933 26.5417 15.4583 25.1067 15.4583 23.3333C15.4583 21.56 16.8933 20.125 18.6666 20.125C20.4399 20.125 21.8749 21.56 21.8749 23.3333C21.8749 25.1067 20.4399 26.5417 18.6666 26.5417ZM18.6666 21.875C17.8616 21.875 17.2083 22.5283 17.2083 23.3333C17.2083 24.1383 17.8616 24.7917 18.6666 24.7917C19.4716 24.7917 20.1249 24.1383 20.1249 23.3333C20.1249 22.5283 19.4716 21.875 18.6666 21.875Z" fill="#2B4168"/>
<path d="M25.6667 17.2083H22.1667C21.0467 17.2083 20.125 16.2867 20.125 15.1667V11.6667C20.125 10.5467 21.0467 9.625 22.1667 9.625H23.6716C23.9866 9.625 24.2783 9.78834 24.43 10.0683L26.425 13.5683C26.495 13.6967 26.5417 13.8483 26.5417 14V16.3333C26.5417 16.8117 26.145 17.2083 25.6667 17.2083ZM22.1667 11.375C22.0033 11.375 21.875 11.5033 21.875 11.6667V15.1667C21.875 15.33 22.0033 15.4583 22.1667 15.4583H24.7917V14.2333L23.1583 11.375H22.1667Z" fill="#2B4168"/>
<path d="M9.33325 10.2083H2.33325C1.85492 10.2083 1.45825 9.81165 1.45825 9.33331C1.45825 8.85498 1.85492 8.45831 2.33325 8.45831H9.33325C9.81159 8.45831 10.2083 8.85498 10.2083 9.33331C10.2083 9.81165 9.81159 10.2083 9.33325 10.2083Z" fill="#2B4168"/>
<path d="M6.99992 13.7083H2.33325C1.85492 13.7083 1.45825 13.3116 1.45825 12.8333C1.45825 12.355 1.85492 11.9583 2.33325 11.9583H6.99992C7.47825 11.9583 7.87492 12.355 7.87492 12.8333C7.87492 13.3116 7.47825 13.7083 6.99992 13.7083Z" fill="#2B4168"/>
<path d="M4.66659 17.2083H2.33325C1.85492 17.2083 1.45825 16.8116 1.45825 16.3333C1.45825 15.855 1.85492 15.4583 2.33325 15.4583H4.66659C5.14492 15.4583 5.54159 15.855 5.54159 16.3333C5.54159 16.8116 5.14492 17.2083 4.66659 17.2083Z" fill="#2B4168"/>
</svg>
