<svg width="30" height="30" viewBox="0 0 30 30" fill="none" xmlns="http://www.w3.org/2000/svg">
<path d="M2.50005 28.4375C2.25005 28.4375 2.01251 28.3375 1.83751 28.1625C1.60001 27.925 1.50008 27.575 1.58758 27.25L3.16259 21.3625C2.11259 19.4125 1.56255 17.2125 1.56255 14.9875C1.56255 7.57499 7.58755 1.54999 15.0001 1.54999C22.4126 1.54999 28.4375 7.57499 28.4375 14.9875C28.4375 22.4 22.4126 28.425 15.0001 28.425C12.7376 28.425 10.5251 27.8625 8.55008 26.7875L2.75007 28.4C2.66257 28.425 2.58755 28.4375 2.50005 28.4375ZM8.67505 24.85C8.83755 24.85 9.00006 24.9 9.15006 24.975C10.9126 26.0125 12.9376 26.5625 15.0001 26.5625C21.3751 26.5625 26.5625 21.375 26.5625 15C26.5625 8.625 21.3751 3.4375 15.0001 3.4375C8.62505 3.4375 3.43755 8.625 3.43755 15C3.43755 17.0375 3.97504 19.025 4.98754 20.775C5.11254 20.9875 5.15006 21.25 5.08756 21.4875L3.83756 26.1625L8.43755 24.8875C8.51255 24.8625 8.60005 24.85 8.67505 24.85Z" fill="#FF693B"/>
<path d="M18.425 22.2C17.65 22.2 16.85 22.025 16.0125 21.6625C15.225 21.325 14.4375 20.875 13.675 20.3125C12.925 19.7625 12.1875 19.1375 11.5125 18.4625C10.8375 17.775 10.2125 17.05 9.66248 16.3C9.09998 15.5125 8.64997 14.7375 8.32497 13.975C7.97497 13.15 7.79999 12.3375 7.79999 11.5625C7.79999 11.0125 7.89996 10.4875 8.08746 10C8.28746 9.48751 8.61248 9.02501 9.03748 8.62501C9.83748 7.83751 10.9875 7.55003 11.9 7.98753C12.2125 8.12503 12.475 8.35003 12.675 8.65003L14.125 10.6875C14.275 10.8875 14.3875 11.1 14.475 11.3125C14.575 11.5625 14.6375 11.8125 14.6375 12.05C14.6375 12.375 14.55 12.7 14.375 12.9875C14.2625 13.175 14.1 13.4 13.8875 13.6125L13.725 13.7875C13.8 13.8875 13.8875 14.0125 14.025 14.1625C14.2875 14.4625 14.575 14.7875 14.8875 15.1C15.2 15.4 15.5125 15.7 15.825 15.9625C15.975 16.0875 16.1 16.1875 16.2 16.25L16.375 16.075C16.6 15.85 16.825 15.675 17.05 15.5625C17.4625 15.3 18.1 15.2375 18.6625 15.475C18.8625 15.55 19.0625 15.6625 19.275 15.8125L21.3625 17.2875C21.65 17.4875 21.875 17.7625 22.025 18.075C22.15 18.3875 22.2 18.6625 22.2 18.95C22.2 19.325 22.1125 19.6875 21.95 20.0375C21.7875 20.3625 21.6 20.65 21.375 20.9125C20.975 21.35 20.5125 21.675 20.0125 21.8875C19.5125 22.1 18.975 22.2 18.425 22.2ZM10.9875 9.675C10.9125 9.675 10.6625 9.675 10.35 9.9875C10.1125 10.2125 9.94999 10.45 9.83749 10.7125C9.72499 10.975 9.67499 11.275 9.67499 11.575C9.67499 12.1 9.79997 12.6625 10.05 13.2625C10.3125 13.8875 10.7 14.55 11.175 15.2125C11.6625 15.875 12.2125 16.5375 12.825 17.15C13.4375 17.75 14.0875 18.3125 14.7625 18.8125C15.4125 19.2875 16.075 19.6625 16.7375 19.95C17.6875 20.3625 18.5625 20.4625 19.275 20.1625C19.525 20.0625 19.75 19.8875 19.975 19.6625C20.0875 19.5375 20.175 19.4125 20.25 19.25C20.2875 19.1625 20.3125 19.0625 20.3125 18.975C20.3125 18.95 20.3125 18.9125 20.275 18.8375L18.1875 17.3875C18.1 17.325 18.0125 17.275 17.9375 17.25C17.8875 17.275 17.8125 17.3125 17.675 17.45L17.2 17.925C16.8375 18.2875 16.2625 18.3875 15.8 18.225L15.575 18.125C15.2875 17.975 14.9625 17.75 14.6 17.4375C14.25 17.1375 13.9125 16.825 13.55 16.475C13.2 16.1125 12.8875 15.775 12.5875 15.425C12.2625 15.0375 12.0375 14.725 11.8875 14.4625L11.75 14.1375C11.7125 14.0125 11.7 13.875 11.7 13.75C11.7 13.4 11.825 13.0875 12.0625 12.8375L12.5375 12.35C12.675 12.2125 12.725 12.1375 12.75 12.0875C12.7125 12 12.6625 11.925 12.6 11.8375L11.1375 9.77502L10.9875 9.675Z" fill="#FF693B"/>
</svg>
